<?xml version="1.0" encoding="UTF-8" standalone="no"?>
<svg
   xmlns:dc="http://purl.org/dc/elements/1.1/"
   xmlns:cc="http://creativecommons.org/ns#"
   xmlns:rdf="http://www.w3.org/1999/02/22-rdf-syntax-ns#"
   xmlns:svg="http://www.w3.org/2000/svg"
   xmlns="http://www.w3.org/2000/svg"
   xmlns:sodipodi="http://sodipodi.sourceforge.net/DTD/sodipodi-0.dtd"
   xmlns:inkscape="http://www.inkscape.org/namespaces/inkscape"
   width="24px"
   height="24px"
   viewBox="0 0 24 24"
   version="1.1"
   id="svg186"
   sodipodi:docname="balsamic.svg"
   inkscape:version="1.0.1 (3bc2e813f5, 2020-09-07)">
  <metadata
     id="metadata190">
    <rdf:RDF>
      <cc:Work
         rdf:about="">
        <dc:format>image/svg+xml</dc:format>
        <dc:type
           rdf:resource="http://purl.org/dc/dcmitype/StillImage" />
      </cc:Work>
    </rdf:RDF>
  </metadata>
  <sodipodi:namedview
     pagecolor="#ffffff"
     bordercolor="#666666"
     borderopacity="1"
     objecttolerance="10"
     gridtolerance="10"
     guidetolerance="10"
     inkscape:pageopacity="0"
     inkscape:pageshadow="2"
     inkscape:window-width="2253"
     inkscape:window-height="2123"
     id="namedview188"
     showgrid="false"
     inkscape:zoom="42"
     inkscape:cx="11.614341"
     inkscape:cy="12"
     inkscape:window-x="5427"
     inkscape:window-y="0"
     inkscape:window-maximized="0"
     inkscape:current-layer="svg186" />
  <!-- Generator: Sketch 3.0.3 (7891) - http://www.bohemiancoding.com/sketch -->
  <title
     id="title172">smileyface-24px</title>
  <desc
     id="desc174">Created with Sketch.</desc>
  <defs
     id="defs176" />
  <g fill=""><path d="M 13.615234 0.001953125 C 13.046001 -0.046076951 11.97731 0.47917709 12.259766 0.64648438 C 12.378077 0.71643313 12.498427 0.7819331 12.621094 0.84765625 C 11.075352 0.9044 7.1308491 1.1866595 5.8242188 1.6777344 C 0.67797071 3.6115494 -1.6286999 15.577296 2.3671875 20.541016 C 7.1602143 26.494206 20.501403 24.167263 23.109375 15.929688 C 24.965789 10.065915 22.465558 5.1333629 18.644531 2.6210938 C 17.288429 1.4570166 15.34825 0.96414585 13.822266 0.060546875 C 13.766737 0.02763814 13.696553 0.0088145644 13.615234 0.001953125 z M 11.664062 2.15625 C 12.131479 2.206932 12.595773 2.2941521 13.087891 2.4765625 C 13.898034 2.7771054 14.65015 3.2179556 15.421875 3.5976562 C 15.677558 3.7232665 16.244564 3.5388173 16.628906 3.3496094 C 17.037796 3.5402529 17.450733 3.751779 17.865234 3.9902344 C 17.869534 3.9959744 17.873013 4.0022985 17.876953 4.0078125 C 17.914753 4.0616665 17.986238 4.0929739 18.074219 4.1113281 C 18.316576 4.2551415 18.559757 4.4059757 18.804688 4.5664062 C 24.97194 9.3979036 21.523309 19.940668 14.908203 21.769531 C 10.836445 22.895264 5.1039982 21.861102 3.2207031 18.832031 C 0.66488625 14.72096 1.8008353 5.1716079 6.25 3.3066406 C 8.1032147 2.5297911 9.8872964 2.1329106 11.664062 2.15625 z M 7.9941406 8.7753906 C 7.8324874 8.759314 7.6524072 8.7775614 7.453125 8.8398438 C 6.6173271 9.1457036 6.5654512 11.155659 8.3164062 10.9375 C 9.3178695 10.688314 9.1257133 8.8879272 7.9941406 8.7753906 z M 15.675781 8.8144531 C 15.445926 8.8188337 15.203824 8.9002795 14.955078 9.0488281 C 14.41884 9.3436592 14.5221 10.616607 15.191406 10.951172 C 15.860946 11.286643 16.906661 10.552668 16.681641 9.46875 C 16.406099 9.0128214 16.058873 8.8071522 15.675781 8.8144531 z M 5.4140625 12.619141 C 5.1509563 12.652076 5.1455879 12.782927 5.1230469 12.914062 C 5.0959979 18.746173 17.075374 19.907454 18.033203 13.818359 C 18.053412 13.516805 18.068468 13.471172 17.921875 13.414062 C 17.617341 13.341319 17.568969 13.596148 17.474609 13.759766 C 13.971222 18.225894 6.7416244 15.999409 5.7773438 13.15625 C 5.7256554 13.006757 5.6432016 12.590361 5.4140625 12.619141 z " /></g></svg>
