<?xml version="1.0" encoding="UTF-8" standalone="no"?>
<svg
   xmlns:dc="http://purl.org/dc/elements/1.1/"
   xmlns:cc="http://creativecommons.org/ns#"
   xmlns:rdf="http://www.w3.org/1999/02/22-rdf-syntax-ns#"
   xmlns:svg="http://www.w3.org/2000/svg"
   xmlns="http://www.w3.org/2000/svg"
   xmlns:sodipodi="http://sodipodi.sourceforge.net/DTD/sodipodi-0.dtd"
   xmlns:inkscape="http://www.inkscape.org/namespaces/inkscape"
   width="20px"
   height="20px"
   viewBox="0 0 20 20"
   version="1.1"
   id="svg68"
   sodipodi:docname="tempo-logo-jira-grey.svg"
   inkscape:version="1.0.1 (3bc2e813f5, 2020-09-07)">
  <metadata
     id="metadata74">
    <rdf:RDF>
      <cc:Work
         rdf:about="">
        <dc:format>image/svg+xml</dc:format>
        <dc:type
           rdf:resource="http://purl.org/dc/dcmitype/StillImage" />
      </cc:Work>
    </rdf:RDF>
  </metadata>
  <defs
     id="defs72" />
  <sodipodi:namedview
     pagecolor="#ffffff"
     bordercolor="#666666"
     borderopacity="1"
     objecttolerance="10"
     gridtolerance="10"
     guidetolerance="10"
     inkscape:pageopacity="0"
     inkscape:pageshadow="2"
     inkscape:window-width="2269"
     inkscape:window-height="2123"
     id="namedview70"
     showgrid="false"
     inkscape:zoom="60.45763"
     inkscape:cx="10.18259"
     inkscape:cy="13.153837"
     inkscape:window-x="5411"
     inkscape:window-y="0"
     inkscape:window-maximized="0"
     inkscape:current-layer="svg68" />
  <g fill="currentcolor"><path d="M 10 0.4140625 C 4.7143047 0.4140625 0.4296875 4.6776029 0.4296875 9.9355469 C 0.4296875 15.193489 4.7143047 19.455078 10 19.455078 C 15.285946 19.455078 19.570312 15.193489 19.570312 9.9355469 C 19.570312 4.6776029 15.285946 0.4140625 10 0.4140625 z M 10 2.546875 C 14.101554 2.546875 17.425781 5.855282 17.425781 9.9355469 C 17.425781 14.015562 14.101554 17.322266 10 17.322266 C 5.8984493 17.322266 2.5742187 14.015562 2.5742188 9.9355469 C 2.5742188 5.855282 5.8984493 2.546875 10 2.546875 z M 12.835938 6.4355469 C 12.764074 6.4355469 12.691337 6.4631841 12.636719 6.5175781 L 9.4511719 9.6894531 C 9.3416894 9.7987327 9.1639229 9.7987327 9.0546875 9.6894531 L 7.7382812 8.3769531 C 7.6287987 8.2679102 7.4515357 8.2679102 7.3417969 8.3769531 L 5.8261719 9.8847656 C 5.7169364 9.9940542 5.7169364 10.172208 5.8261719 10.28125 L 9.0742188 13.515625 C 9.1837104 13.62466 9.3631645 13.62466 9.4726562 13.515625 L 14.568359 8.4414062 C 14.678088 8.3323633 14.678088 8.1544563 14.568359 8.0449219 L 13.033203 6.5175781 C 12.978215 6.4631841 12.907801 6.4355469 12.835938 6.4355469 z " /></g>
</svg>
